<?xml version="1.0" encoding="UTF-8"?><svg width="512" height="512" version="1.1" viewBox="0 0 512 512" xmlns="http://www.w3.org/2000/svg" xmlns:xlink="http://www.w3.org/1999/xlink"><!--Generated by IJSVG (https://github.com/iconjar/IJSVG)--><g transform="scale(8)"><path fill="#000" fill-rule="evenodd" d="M24.941,42.959c-0.154,-0.979 -2.188,-1.776 -1.2,-2.4c-0.413,-0.596 -1.155,-0.859 -1.44,-0.96c0.145,-0.584 0.047,-1.765 0.24,-2.88c-2.713,-2.328 -6.562,1.886 -6,5.04c0.795,-0.058 2.05,0.536 3.12,-0.24c0.875,1.445 2.883,1.757 3.6,3.36c-0.607,0.192 -0.612,0.987 -0.96,1.439c0.427,0.453 0.697,1.062 1.68,0.96c1.006,-1.634 3.16,-2.12 3.36,-4.56c-0.824,-0.793 -1.656,-0.257 -2.4,0.241Z"></path><path fill="#000" fill-rule="evenodd" d="M48.701,7.679c-1.181,-0.66 -3.747,0.066 -4.32,-1.2c-0.16,0 -0.32,0 -0.48,0c0.414,0.919 -2.575,0.83 -2.64,0.72c0.04,0.384 -0.837,1.117 -1.44,1.2c0.035,-0.284 0.428,-0.544 0,-0.72c-0.529,0.632 -2.408,1.179 -2.64,2.64c-0.027,-0.292 -0.071,-0.568 -0.479,-0.48c0.359,1.48 -1.483,0.757 -0.961,2.4c-0.453,0.054 -0.529,-0.27 -0.96,-0.24c-2.333,3.046 -5.671,5.235 -6.959,8.16c-0.75,0.073 0.61,-0.693 -0.24,-0.72c-2.994,3.246 -6.253,6.226 -9.12,9.6c-4.181,4.619 -9.767,7.833 -11.76,14.64c0,0.64 0,1.28 0,1.92c0.647,4.325 4.167,7.175 6.96,10.08c1.394,0.526 2.805,1.035 4.32,1.439c0.96,0 1.92,0 2.88,0c1.578,-0.582 2.735,-1.584 4.32,-2.159c5.992,-6.851 15.982,-16.01 23.04,-23.76c2.396,-2.631 6.401,-5.179 7.68,-8.16c3.254,-7.592 -3.747,-11.817 -7.201,-15.36Zm-3.36,23.279c-0.315,0.288 -0.378,0.094 -0.72,0c-0.008,0.075 -0.534,1.477 -0.96,0.96c-0.206,0.474 -1.273,1.827 -1.681,2.16c-0.208,-0.929 0.586,-0.854 0.721,-1.439c-0.899,0.701 -1.312,1.888 -2.641,2.16c-0.16,0.929 0,0.854 -0.24,1.439c-0.542,-0.134 0.291,-0.374 -0.239,-0.72c-0.161,1.082 -1.206,0.745 -1.2,2.4c-0.598,-0.026 -0.743,-0.45 -1.2,0c-1.977,2.773 -4.761,3.878 -5.76,7.199c-0.614,0.011 -0.293,-0.178 -0.24,-0.479c-4.838,2.762 -6.073,9.127 -13.44,9.359c-3.826,-2.253 -7.537,-5.358 -7.92,-10.319c2.446,-5.255 8.569,-8.638 11.76,-13.92c1.609,-0.551 2.152,-2.168 3.12,-3.36c0.213,-0.187 0.542,-0.258 0.96,-0.24c2.97,-3.07 7.575,-8.497 11.76,-12.48c2.513,-2.392 6.971,-5.998 11.28,-3.12c1.828,1.221 4.941,4.511 5.52,6.24c2.739,8.189 -6.726,9.637 -8.88,14.16Z"></path><path fill="#000" fill-rule="evenodd" d="M44.86,23.039c-0.752,-0.806 -1.092,-1.025 -0.96,-1.68c-0.098,0.598 -0.93,0.014 -0.72,-0.48c1.056,0.761 -0.738,-1.845 -0.479,-0.48c-0.728,-0.963 -0.811,-1.807 -0.24,-2.64c-0.061,-1.22 -1.229,-1.331 -1.92,-1.92c-3.512,1.223 -6.909,7.682 -1.2,6c1.199,1.041 2.784,1.696 3.6,3.12c-0.305,0.575 -0.876,0.884 -0.72,1.92c1.84,1.571 5.384,-2.496 4.56,-4.32c-1.063,-0.263 -1.194,0.406 -1.921,0.48Z"></path></g></svg>